<svg xmlns="http://www.w3.org/2000/svg" viewBox="0 0 318.1 455.7"><defs><style>.cls-1{fill:#231f20;}.cls-2{fill:#fff;stroke:#231f20;stroke-miterlimit:2.61;stroke-width:0.75px;fill-rule:evenodd;}.cls-3{fill:#ec1c24;}</style></defs><g id="katman_2" data-name="katman 2"><g id="katman_1-2" data-name="katman 1"><path class="cls-1" d="M158.9,455.7c-47.8,0-75.5-33.6-102.8-66.5-3.8-4.5-7.6-9-12.5-14.9C9.7,335.2,5.5,280.8,1.7,228.5,1,221.2.7,214.3,0,206.3,0,143.6,9,93.1,33.2,57.8,57.8,21.8,97.6,1.4,158.9,0h.3c61.3,1.7,101.1,21.8,125.7,57.8,24.2,35.3,33.2,85.9,33.2,148.2v.7h0v.7c-.7,7.6-1,14.2-1.7,21.1-3.8,52.3-8,106.6-41.9,145.8h0c-4.8,5.5-8.7,10-12.5,14.9-27.6,33-55.3,66.5-103.1,66.5Z"/><path class="cls-2" d="M194.9,239c18.7-31.9,61.3-44.7,86.2-83.4,12.5,29.1,5.9,92.8-31.2,121.5-21.7,3.5-51.2-12.1-55-38.1Z"/><path class="cls-2" d="M123.6,239c-18.7-31.9-61.3-44.7-86.2-83.4-12.5,29.1-5.9,92.8,31.2,121.5,21.8,3.5,51.2-12.1,55-38.1Z"/><path class="cls-3" d="M202,82a248.65,248.65,0,0,0,2-40.78A1.46,1.46,0,0,1,204,41c-13.64-2.47-34.55-11.7-43.15-17.86V63.59C161.91,68.79,185.46,81.92,202,82Z"/><path class="cls-3" d="M203.85,37a178.91,178.91,0,0,0-3.3-25.49,221,221,0,0,0-39.71-4.67V18.2C164.26,22.67,189.57,34.13,203.85,37Z"/><path class="cls-3" d="M192.88,129.33a425,425,0,0,0,8.63-43.47C188.3,85.55,169,77.57,160.84,70v43.3C163.69,119.3,179.71,131.45,192.88,129.33Z"/><path class="cls-3" d="M172.55,197.58q4.29-12.92,8.21-25.48c-10.09,1.23-16.28-3.26-19.92-7.93v28.08C163.45,195.4,166.88,198.41,172.55,197.58Z"/><path class="cls-3" d="M144.47,250l-2.94,1c-.31.48-.61,1-.92,1.43Z"/><path class="cls-3" d="M268.11,135.64a258.62,258.62,0,0,0,22.58-34.74c-9.31-2.47-23.19-11.5-33.5-24.14a165.94,165.94,0,0,1-10.55,34.11C248.09,116.1,261.32,130.4,268.11,135.64Z"/><path class="cls-3" d="M258,71.52c8.21,11,24,23.86,34.85,25.92.76-1.59,1.47-3.13,2.13-4.65a149.83,149.83,0,0,0-12.85-26.35c-8.65-6-17.78-16.15-24.2-24.22A99.77,99.77,0,0,1,258,71.52Z"/><path class="cls-3" d="M222.67,148.65c4.19-7,8.08-13.83,11.6-20.63q4.22-8.15,7.58-15.85c-9.3-2-28.89-13.69-36.94-22.67-2,13.62-4.95,27.59-8.55,41.92C198.66,139.56,214.35,148.94,222.67,148.65Z"/><path class="cls-3" d="M160.84,197.82v34.26c3.55-10.33,7-20.48,10.37-30.48A14.62,14.62,0,0,1,160.84,197.82Z"/><path class="cls-3" d="M242,27.12a132.58,132.58,0,0,0-25.71-11.37,238.93,238.93,0,0,0,25.58,11.32Z"/><path class="cls-3" d="M214.38,47.78c11.74,10.33,31.85,21.39,39.94,22.2a92.75,92.75,0,0,0-1.61-34.25c-3.83-1.7-8-3.33-12.3-5-10.9-4.3-23.1-9.1-35.48-17a188,188,0,0,1,3,26.78C208.65,42,210.6,44.45,214.38,47.78Z"/><path class="cls-3" d="M183.8,309.48c-3.05-7.54-6.16-15.09-9.27-22.6l-.93-2.27c-4.94-.9-8.93.67-12.76,5v30C165.68,313.9,173.93,308.79,183.8,309.48Z"/><path class="cls-3" d="M52.46,138.28a254.11,254.11,0,0,0,26.35,28.21c5.48-3.64,12.56-11.67,13-15.66-4.07-6.75-7.86-13.45-11.31-20.09q-4.06-7.8-7.36-15.2C69,122.55,59.33,133.06,52.46,138.28Z"/><path class="cls-3" d="M106,50.7C95.84,59.64,74.7,72.48,64.16,73.8a159.45,159.45,0,0,0,10.3,34.72c8-1,35.18-17,38-25.25l.11-.32a255.5,255.5,0,0,1-2.21-36.55A50.65,50.65,0,0,1,106,50.7Z"/><path class="cls-3" d="M109.86,285.55a21.93,21.93,0,0,1,3.88,7.47l7.39-8.26c3.52-3.92,7.08-7.89,10.67-12l0-.15.06-.38h-.06a8.78,8.78,0,0,0-.07-3.17,4.44,4.44,0,0,0-1.7-2.45A115.46,115.46,0,0,1,109.86,285.55Z"/><path class="cls-3" d="M171.9,280.51c-3.87-9.38-7.58-18.46-11.06-27.38v31.12A15.66,15.66,0,0,1,171.9,280.51Z"/><path class="cls-3" d="M147.19,244.91l-2,0-.47.84Z"/><path class="cls-3" d="M147.84,241l-.44-.14-.08.14Z"/><path class="cls-3" d="M265.74,45.5c1.95,2.25,4,4.46,6,6.58Q268.88,48.68,265.74,45.5Z"/><path class="cls-3" d="M39.4,279.59a148.37,148.37,0,0,1-17.85-35.51q-5.22.06-10.17.19c4.76,11.32,6.85,28.59,5.23,43C23.82,284.7,31.4,282.18,39.4,279.59Z"/><path class="cls-3" d="M185.44,313.57c-13.2-2.1-22.21,7.88-24.6,13.27v32c7.43-7.53,23.4-16.57,35.62-16.34C193.07,333,189.33,323.29,185.44,313.57Z"/><path class="cls-3" d="M197.85,346.48c-13.37-1.35-34,12.62-37,18.63v37c9.42-8.34,33.64-18.39,47.65-18.91A328,328,0,0,0,197.85,346.48Z"/><path class="cls-3" d="M103.42,47.78c5-4.36,6.76-7.26,6.81-8.53l0-1.61.42-.06a182.8,182.8,0,0,1,3-24.21c-12.53,8.11-24.87,13-35.9,17.32-4.51,1.78-8.79,3.46-12.75,5.25A93.16,93.16,0,0,0,63.6,70C71.76,69.07,91.74,58.07,103.42,47.78Z"/><path class="cls-3" d="M182,168c3.61-11.78,6.92-23.31,9.82-34.62-11.48,1-24.47-6.51-31-13.54v36.71C163.18,162.06,168.94,170.42,182,168Z"/><path class="cls-3" d="M176,199.63c1.68,3.67,3.93,6,7.1,7.27q7.47-10.18,14.53-20.18a15.21,15.21,0,0,1-7.67-2.65,19.38,19.38,0,0,1-6.43-7.67Q179.89,187.88,176,199.63Z"/><path class="cls-3" d="M238.25,312.26c3.1-2.38,8.44-5.81,14.22-6.46-.64-.59-1.31-1.16-2-1.74a109.34,109.34,0,0,1-39.1-16.57,17.05,17.05,0,0,0-4,8.7,328.63,328.63,0,0,1,21.46,26.51A37.35,37.35,0,0,1,238.25,312.26Z"/><path class="cls-3" d="M203.43,185.17c.31,2.35,2.22,5.68,4.88,8.53,8.93-7.79,18.44-15.46,28.2-24.29-5.13-3.47-10.68-9.49-13.13-14.46C217.25,164.87,210.55,174.94,203.43,185.17Z"/><path class="cls-3" d="M194.92,137c-2.83,10.84-6,21.9-9.5,33.15a17.3,17.3,0,0,0,6.69,10.67,11.46,11.46,0,0,0,8.27,1.87c7.16-10.27,13.89-20.39,20-30.34C212,151.36,200.18,144.54,194.92,137Z"/><path class="cls-3" d="M196.59,284.14q3.87,4.31,7.59,8.47a21.91,21.91,0,0,1,4-7.38,116.86,116.86,0,0,1-20-18.89A4.56,4.56,0,0,0,186,269.1a8.91,8.91,0,0,0-.06,3.16C189.55,276.3,193.09,280.24,196.59,284.14Z"/><path class="cls-3" d="M205.4,196.27a26.77,26.77,0,0,1-4.79-7.09q-7.14,10.14-14.75,20.49c-.38,2.35,0,4.05,1,5.13A193.65,193.65,0,0,1,205.4,196.27Z"/><path class="cls-3" d="M283.66,306A67.38,67.38,0,0,1,300,290.93c-7.37-2.59-15.15-5.18-23.38-7.84a126.3,126.3,0,0,1-20,21.33,95.73,95.73,0,0,1,17,20.76C275.13,319.05,278.59,312.42,283.66,306Z"/><path class="cls-3" d="M304.31,142.85l2.69-1.71a242.27,242.27,0,0,0-10.05-43c-.84,1.8-1.73,3.64-2.69,5.52A224.79,224.79,0,0,1,304.31,142.85Z"/><path class="cls-3" d="M211.82,50.7a50.43,50.43,0,0,1-3.73-3.58,262.22,262.22,0,0,1-2.42,37c4.26,8.47,30.12,23.51,37.73,24.43a157.1,157.1,0,0,0,10.35-34.72C243.25,72.58,222,59.67,211.82,50.7Z"/><path class="cls-3" d="M226,150.68c.25,4,7.81,12.53,13.41,16.08a255.17,255.17,0,0,0,26.38-28.15c-6.91-5.11-16.92-16-21.14-23.13q-3.12,7-6.92,14.33C234.15,136.69,230.22,143.64,226,150.68Z"/><path class="cls-3" d="M297,244.09a148.26,148.26,0,0,1-18,35.68c7.8,2.53,15.19,5,22.22,7.47-1.62-14.38.47-31.65,5.23-43Q301.8,244.15,297,244.09Z"/><path class="cls-3" d="M307.07,190.26,311,189.1a424.27,424.27,0,0,0-3.37-43.73L305,147.05A227,227,0,0,1,307.07,190.26Z"/><path class="cls-3" d="M225.75,325.15a315.29,315.29,0,0,0-20.83-25.84,12,12,0,0,0-9.18,1.86c-3.32,2.28-5.73,6.33-6.6,11.11v0c3.75,9.38,7.36,18.72,10.65,27.95C204.39,332.66,216.73,325.91,225.75,325.15Z"/><path class="cls-3" d="M175.05,278a14.38,14.38,0,0,1,5.76-5.68c-5-5.71-10.18-11.75-15.4-18.15C168.47,261.9,171.7,269.82,175.05,278Z"/><path class="cls-3" d="M186.8,306.52a19.11,19.11,0,0,1,6.74-8.55,15.51,15.51,0,0,1,7.77-2.74c-2.48-2.79-5-5.61-7.61-8.49-3.29-3.67-6.72-7.48-10.23-11.45-3,1.33-4.67,3.3-6.45,7.44.37.88.74,1.77,1.1,2.66C181,292.42,183.94,299.47,186.8,306.52Z"/><path class="cls-3" d="M244,359.34A137.91,137.91,0,0,0,228.41,329c-4-.36-10,1.4-15.56,4.58-6.07,3.47-10.26,7.92-10.93,11.62l-.14.76a340.31,340.31,0,0,1,10,34C218.63,371.34,235.48,360.86,244,359.34Z"/><path class="cls-3" d="M252.15,343.05c5.1-6.17,12.74-12.84,19.32-13.92a89,89,0,0,0-14.75-19.32c-4.47-.93-10.29,1.06-16.09,5.53-5.45,4.2-8.62,8.8-9.23,11.11a144.49,144.49,0,0,1,14.33,26.46A49.31,49.31,0,0,1,252.15,343.05Z"/><path class="cls-3" d="M177.16,251.25l-3.83-1.3,5,3.18C178,252.5,177.56,251.88,177.16,251.25Z"/><path class="cls-3" d="M170.61,244.91l3.39,1.16-.65-1.13Z"/><path class="cls-3" d="M165.45,230.62q7.76-10.35,15.25-20.51a15.83,15.83,0,0,1-6.4-5.51C171.44,213.16,168.47,221.83,165.45,230.62Z"/><path class="cls-3" d="M184.4,217.82a7.57,7.57,0,0,1-2.1-3.32q-5.9,8-12,16.09c3.69-3,7.35-6,11-8.8Q182.83,219.77,184.4,217.82Z"/><path class="cls-3" d="M171.18,241l-.19-.35-1,.34Z"/><path class="cls-3" d="M182.28,268.06a8,8,0,0,1,3.34-4.85c-.51-.65-1-1.31-1.51-2-5.16-3.15-10.52-6.48-16.11-10.07C172.83,257.11,177.59,262.69,182.28,268.06Z"/><path class="cls-3" d="M102.69,15.36A132.42,132.42,0,0,0,74.57,27.79l1.81-.72A233.9,233.9,0,0,0,102.69,15.36Z"/><path class="cls-3" d="M146.78,280.48A15.77,15.77,0,0,1,157,284.25V253.13c-3.48,8.92-7.19,18-11.06,27.38C146.19,280.49,146.48,280.48,146.78,280.48Z"/><path class="cls-3" d="M157,229.74V197.87a14.19,14.19,0,0,1-9.6,3.75Q152,215.46,157,229.74Z"/><path class="cls-3" d="M144.2,284.61l-.93,2.27c-3.11,7.52-6.23,15.06-9.27,22.6.6,0,1.2-.06,1.79-.06,9.09,0,16.62,4.84,21.17,10.26v-30C153.13,285.28,149.14,283.71,144.2,284.61Z"/><path class="cls-3" d="M132.36,313.57c-3.89,9.72-7.63,19.4-11,28.94h.46c12.17,0,27.82,8.9,35.16,16.34v-32C154.57,321.45,145.55,311.48,132.36,313.57Z"/><path class="cls-3" d="M125.59,129.43c13.06,1.6,28.57-10.23,31.37-16.18V70c-8.06,7.5-26.87,15.35-40.06,15.89A420.73,420.73,0,0,0,125.59,129.43Z"/><path class="cls-3" d="M126.61,133.41c2.92,11.33,6.25,22.89,9.9,34.69,12.57,2,18.15-6.14,20.45-11.57V119.82C150.53,126.71,137.91,134,126.61,133.41Z"/><path class="cls-3" d="M137.78,172.18q3.93,12.57,8.26,25.5c4.74.45,7.65-1.58,10.92-5.38V164.17C153.41,168.72,147.43,173.11,137.78,172.18Z"/><path class="cls-3" d="M72.87,363.08a130.66,130.66,0,0,0-5.39,24.66c6.57,1.24,16.59,8.57,19.83,11.06a94,94,0,0,1,14.22,13.12,160.4,160.4,0,0,1,3.34-26.52C101.67,377.59,80.71,364,72.87,363.08Z"/><path class="cls-3" d="M120,346.48a327.42,327.42,0,0,0-10.64,36.7c14,.52,38.23,10.57,47.65,18.91v-37C154,359.1,133.34,345.12,120,346.48Z"/><path class="cls-3" d="M67.06,391.56c0,.16,0,.33,0,.5,11,13.19,22.36,26.06,35.23,36.24a93.34,93.34,0,0,1-.74-9.59C97.62,410.56,75.39,393.24,67.06,391.56Z"/><path class="cls-3" d="M68.46,363.36l1-2.45.36-1.06c.38-2.46-1.84-7.89-7.16-14.32-6.36-7.68-13.86-12.87-18.33-12.66a112.23,112.23,0,0,0-7.79,20.37c.84,1.41,1.72,2.81,2.62,4.19,6.32,3.85,12.55,10.1,15.39,13.13a86.4,86.4,0,0,1,9.68,12.22,133,133,0,0,1,4.45-19.44Z"/><path class="cls-3" d="M108.57,387h-.07a145.74,145.74,0,0,0-3.15,29.87c14.48.17,41.54,11.22,51.61,20V408C155.83,403,126.15,387,108.57,387Z"/><path class="cls-3" d="M105.47,420.78a84.57,84.57,0,0,0,1.23,10.88C121,441.93,137.19,448.75,157,449.17v-6.39C155.79,437.62,123.65,420.85,105.47,420.78Z"/><path class="cls-3" d="M276.63,330.61a111.93,111.93,0,0,1,7.31,18c9.06-16.64,14.53-35.13,18.12-54.44C287.53,302.76,277.39,321,276.63,330.61Z"/><path class="cls-3" d="M256.85,384.76c4-4.89,8.07-9.75,12.15-14.46.1-.11.18-.23.28-.34A88.32,88.32,0,0,0,256.85,384.76Z"/><path class="cls-3" d="M116.39,82C132.92,81.6,155.9,68.72,157,63.59V23.16c-8.47,6.07-28.89,15.12-42.53,17.74A243.47,243.47,0,0,0,116.39,82Z"/><path class="cls-3" d="M304.55,278.69c1.13-8.21,2-16.52,2.78-24.86A95.6,95.6,0,0,0,304.55,278.69Z"/><path class="cls-3" d="M311.06,193.12c-1.39.41-2.81.84-4.23,1.28a191.42,191.42,0,0,1-8.58,45.82q4.77.06,9.31.19c.45-4.78,1.17-10,2.11-15.52.48-6.28,1-12.52,1.53-18.69C311.2,201.77,311.15,197.42,311.06,193.12Z"/><path class="cls-3" d="M273.27,332.86c-4.49,0-11.86,5.1-18.12,12.67-4.67,5.64-7,10.51-7.19,13.28a132.65,132.65,0,0,1,5.86,23.58,88.32,88.32,0,0,1,9.43-11.83c2.85-3,9.1-9.32,15.44-13.16q1.33-2,2.58-4.12a113.13,113.13,0,0,0-7.8-20.41Z"/><path class="cls-3" d="M114.64,36.88C129,33.77,153.59,22.6,157,18.2V6.87a224.49,224.49,0,0,0-38.87,4.46A177,177,0,0,0,114.64,36.88Z"/><path class="cls-3" d="M160.84,442.78v6.39c19.78-.42,36-7.24,50.25-17.47a85,85,0,0,0,1.24-10.92C194.15,420.85,162,437.62,160.84,442.78Z"/><path class="cls-3" d="M209.23,387C191.66,387,162,403,160.84,408v28.92c10.07-8.8,37.13-19.85,51.61-20A145.74,145.74,0,0,0,209.3,387Z"/><path class="cls-3" d="M216.29,418.71a94.3,94.3,0,0,1-.75,9.64c13-10.29,24.45-23.33,35.52-36.61,0-.08,0-.16,0-.23C243,392.81,220.23,410.46,216.29,418.71Z"/><path class="cls-3" d="M250.62,387.69A131.09,131.09,0,0,0,245.25,363c-7.57.56-29.07,14.44-32.32,22.37a160.25,160.25,0,0,1,3.34,26.6C224.36,402.33,241.81,389.13,250.62,387.69Z"/><path class="cls-3" d="M144,203.82a16,16,0,0,1-7,6.32q8.26,11.21,16.83,22.55Q148.81,218,144,203.82Z"/><path class="cls-3" d="M106,380a339.54,339.54,0,0,1,10-34l-.14-.76c-.67-3.7-4.86-8.15-10.92-11.62-5.37-3.06-11.14-4.81-15.13-4.61a137,137,0,0,0-15.7,30.42C82.73,361.12,99.26,371.45,106,380Z"/><path class="cls-3" d="M128.67,312.32v0c-.87-4.78-3.28-8.83-6.6-11.11a11.91,11.91,0,0,0-8.61-1.95,322.66,322.66,0,0,0-21,26c9,.93,21,7.58,25.57,15.08C121.31,331.05,124.92,321.7,128.67,312.32Z"/><path class="cls-3" d="M152.05,255c-5,6.14-10,11.94-14.76,17.43a14.33,14.33,0,0,1,5.46,5.52C146,270.12,149.09,262.5,152.05,255Z"/><path class="cls-3" d="M48.53,370l.27.33c4.08,4.72,8.11,9.57,12.15,14.45A89.14,89.14,0,0,0,48.53,370Z"/><path class="cls-3" d="M65.65,343.05a48,48,0,0,1,6.6,10.27,143.7,143.7,0,0,1,14.24-26.38c-.23-2.1-3.46-7.08-9.32-11.6s-11.62-6.46-16.09-5.53a89,89,0,0,0-14.75,19.32C52.91,330.21,60.55,336.88,65.65,343.05Z"/><path class="cls-3" d="M117.14,189.29a26.79,26.79,0,0,1-4.42,6.64,195.67,195.67,0,0,1,18.52,18.47,6.09,6.09,0,0,0,.73-4.56Q124.34,199.48,117.14,189.29Z"/><path class="cls-3" d="M135.61,268.47c4.91-5.64,9.9-11.52,14.95-17.8-5.39,3.47-10.56,6.7-15.55,9.76-.78,1-1.58,2.08-2.39,3.1A8.18,8.18,0,0,1,135.61,268.47Z"/><path class="cls-3" d="M133.77,217.41q2.25,2.76,4.39,5.7c3,2.39,6.1,4.84,9.19,7.38q-6-8-11.88-15.91A7.45,7.45,0,0,1,133.77,217.41Z"/><path class="cls-3" d="M81.69,169.13c9.72,8.83,19.2,16.47,28.11,24.23,2.44-2.71,4.2-5.79,4.55-8-7.13-10.23-13.84-20.32-20-30.27C92,159.88,86.67,165.65,81.69,169.13Z"/><path class="cls-3" d="M89.18,323.05a328.61,328.61,0,0,1,21.32-26.37,16.85,16.85,0,0,0-3.82-8.89,109.73,109.73,0,0,1-39.61,16.48c-.58.5-1.17,1-1.74,1.53,5.78.65,11.12,4.08,14.22,6.47C83.39,315.23,87.27,319.37,89.18,323.05Z"/><path class="cls-3" d="M34.14,306c5.07,6.43,8.53,13.06,10.07,19.19A96.55,96.55,0,0,1,61.53,304.1a125.23,125.23,0,0,1-19.75-21.2c-8.44,2.73-16.41,5.38-24,8A67.38,67.38,0,0,1,34.14,306Z"/><path class="cls-3" d="M139.68,285.4c.36-.9.73-1.78,1.1-2.67-1.71-4-3.34-6-6.12-7.29-3.66,4.14-7.22,8.11-10.64,11.92l-7.08,7.91a15.51,15.51,0,0,1,7.32,2.7,19.19,19.19,0,0,1,6.75,8.55C133.86,299.47,136.77,292.42,139.68,285.4Z"/><path class="cls-3" d="M24.09,104q-1.64-3.26-3.1-6.5a241.7,241.7,0,0,0-10.21,43.59l3.35,2.13A224.64,224.64,0,0,1,24.09,104Z"/><path class="cls-3" d="M11.68,194.61l-4.94-1.49c-.09,4.3-.14,8.65-.14,13.08.56,6.2,1.05,12.46,1.54,18.75.94,5.45,1.65,10.7,2.1,15.46q4.88-.14,10-.2A191.59,191.59,0,0,1,11.68,194.61Z"/><path class="cls-3" d="M13.49,147.46l-3.3-2.11A424.86,424.86,0,0,0,6.84,189.1c1.51.44,3.05.91,4.6,1.38A227.45,227.45,0,0,1,13.49,147.46Z"/><path class="cls-3" d="M15.85,294.24c3.61,19.31,9.07,37.76,18,54.32a112.11,112.11,0,0,1,7.29-17.95C40.41,321,30.32,302.85,15.85,294.24Z"/><path class="cls-3" d="M13.26,278.16a96,96,0,0,0-2.71-24C11.3,262.19,12.17,270.22,13.26,278.16Z"/><path class="cls-3" d="M76,112.15a314.61,314.61,0,0,0,19.09,36.5c8.53.36,25-9.65,26.52-18l.12-.68c-3.51-14-6.35-27.75-8.32-41.11C105.74,97.93,85.54,110.12,76,112.15Z"/><path class="cls-3" d="M97.37,152.4c6.12,10,12.82,20.08,19.94,30.32a11.51,11.51,0,0,0,8.38-1.86c3.45-2.34,5.95-6.54,6.86-11.52l.1-.55c-3.39-11-6.53-21.84-9.3-32.45C118.35,144.12,106.05,151.35,97.37,152.4Z"/><path class="cls-3" d="M127.87,184.07a15.19,15.19,0,0,1-7.75,2.66c4.7,6.69,9.57,13.42,14.55,20.2,3.48-1.39,5.86-4,7.59-8.29q-3.9-11.73-7.52-23.16A19.88,19.88,0,0,1,127.87,184.07Z"/><path class="cls-3" d="M43.58,55A157.08,157.08,0,0,0,55,42.52,115,115,0,0,0,43.58,55Z"/><path class="cls-3" d="M27.72,100.73a259.65,259.65,0,0,0,22.4,34.57c6.88-5.47,19.5-19.17,21-24.36A165.65,165.65,0,0,1,60.6,76.78C50.51,89.14,37,98,27.72,100.73Z"/><path class="cls-3" d="M25.21,97.38c10.87-2.23,26.4-14.9,34.54-25.85a99.83,99.83,0,0,1,0-28.68C53.12,51.09,43.85,61.21,35.17,67A150.15,150.15,0,0,0,22.91,92.25l.3.7Q24.14,95.13,25.21,97.38Z"/></g></g></svg>