<?xml version="1.0" encoding="UTF-8"?>
<svg id="Layer_2" data-name="Layer 2" xmlns="http://www.w3.org/2000/svg" viewBox="0 0 352.33 469.23">
  <defs>
    <style>
      .cls-1 {
        fill-rule: evenodd;
        stroke-width: 0px;
      }
    </style>
  </defs>
  <g id="katman_1" data-name="katman 1">
    <path class="cls-1" d="m76.12,1.63c-16.9,42.01-39.41,88.9-35.34,150.07,11.81,1.76,24.58-3.63,37.52-7.07,5.97-1.59,12.4-3.02,18.49-4.89,8.15-2.51,13.72-8.7,24.47-6.52,7.48,1.51,11.59,9.34,21.21,9.79-1.27-5.37-4.64-11.95-10.87-14.14-4.4-1.54-14.25-.13-23.92.54-13.79.97-24.6,1.25-32.08,5.98-2.93-1.17-5.67-3.83-9.24-6.52-2.83-2.14-7.55-5.04-8.16-7.61-.83-3.53,2.65-12.64,3.81-17.4C71.21,65.73,85.15,25.9,103.85,0c-10.49,35.54-22.87,72.1-22.29,116.9,13.38,2.29,27.63,2.25,42.95.54,4.17-.47,10.03-2.51,13.05-1.63,3,.88,2.76,3.71,4.89,6.52,2.92,3.85,8.2,6.8,11.96,10.33,2.68-6.2,7.04-10.72,14.68-11.96-1.29,5.42-5.58,7.84-5.44,14.68,3.53,1.23,4.11-4.86,6.52-6.52,2.64,1.53,2.37,5.97,5.44,7.07,4.03-.32,3.98-4.72,5.98-7.07,3.1,1.43,2.84,6.22,6.53,7.07,1.8-6.39-3.86-9.87-4.89-15.22,7.32,1.38,12.16,5.24,14.14,11.96,7.27-3.97,12.05-10.43,16.86-16.86,17.19,1.88,37.8,4.13,56,1.63,1.93-43.81-11.37-81.77-21.75-116.9,4.32,2.48,5.93,7.75,8.16,11.96,16.38,31.02,30.19,68.59,37.52,109.29-5.11,5.04-11.16,9.13-16.86,13.59-7.12-4.29-18.22-4.97-32.08-5.98-9.78-.72-19.35-1.94-23.92-.54-6.68,2.04-9.73,8.46-11.96,14.14,12.57-.56,15.05-11.75,29.36-9.79,5.16.71,10.68,4.62,16.86,6.52,5.75,1.77,12.07,3.37,17.94,4.89,12.87,3.34,25.48,8.09,37.52,7.61,3.37-6.67.99-14.25.54-21.2-1.4-21.67-3.52-43.38-9.24-61.44-7.63-24.09-17.74-46.41-26.64-67.42,34.13,34.92,48.18,94.63,61.98,151.7-4.8,5.71-11.08,14.11-17.4,17.94-1.67,1.02-6.78,3.56-9.24,3.26-2.96-.36-5.08-4.25-8.16-5.98-6.57-3.71-17.25-7.1-27.73-10.33-20.02-6.17-44.56-14.32-64.7-.54,6.73,3.6,14.02,3.24,21.75,2.72,5.08-.34,10.05-2.18,14.14-1.09,4.73,1.27,5.74,5.09,8.7,8.7,5.42,6.6,13.07,12.01,20.12,17.94,13.47,11.35,27.44,22.23,42.95,33.17,6.16,4.34,16.86,14.12,23.38,14.14,5.14,0,6.44-4.76,10.87-4.35-.32,80.52-22.6,143.78-54.92,194.11,12.63-33.82,24.66-73.6,29.9-117.99,2.02-17.13,7.97-44.53,0-57.63-4.09-6.73-13.35-12.33-20.66-17.94-18.99-14.59-35.18-27.16-53.28-42.41-3.46-2.92-6.39-7.12-9.79-9.24-7.35-4.6-17.83-5.65-27.19-5.44,8.41,11.89,19.32,21.28,34.8,26.1,2.85,23.8,2.71,51.69,1.63,76.12-3.41,77.52-17.18,148.27-52.2,194.11,22.38-44.57,30.45-106.26,30.45-176.71,0-22.26-2.93-45.04-2.18-66.88.14-4.17.44-8.85,2.72-11.96-7.57-12-15.56-23.58-28.82-29.9.3,6.77,6.14,9.19,7.07,16.86,2.25,18.57-4.49,39.65-9.79,57.63-5.37,18.23-11.58,36.31-20.12,46.76-1.19-1.36-1.06-6.89-3.26-5.44-2.54-1.63-3.29,2.59-4.35,5.44-8.85-10.42-14.71-28.84-20.12-47.3-5.26-17.95-12.04-38.73-9.79-57.09.79-6.4,5.41-10.08,7.61-16.31-6.41.4-12.47,7.21-16.86,11.96-4.72,5.12-8.85,11.28-12.51,16.86,4.38,13.47,1.84,36.03,1.09,53.83-3.21,76.16,4.16,152.01,30.45,202.26-40.4-51-53.28-136-53.28-231.62,0-10.77-1.89-31.75,2.18-38.06,1.87-2.9,6.45-2.74,10.33-4.35,9.86-4.08,17.84-14.76,24.47-21.75-9.13-1.61-19.59.63-26.64,4.89-3.59,2.17-6.74,6.22-10.33,9.24-18.01,15.17-34.7,28.14-54.37,43.5-10.33,8.07-22.15,13.04-23.38,28.82-1.11,14.28,2.05,31.59,3.81,45.67,5.4,43.38,16.08,83.48,30.45,117.44-17.64-22.57-29.27-52.85-40.23-84.28C4.11,306.88,1.29,269.02,0,229.45c4.29-.38,5.93,4.18,10.33,4.35,6.81.26,17.48-9.55,23.92-14.14,14.16-10.08,30-21.65,42.95-32.62,6.79-5.75,14.06-11.46,19.57-17.94,3.03-3.56,5.18-8.84,9.24-9.79,4.24-.99,8.33,1.22,12.51,1.63,8.41.84,16,.37,22.84-2.18-4.03-6.02-15.67-7.54-25.01-8.16-4.16-.28-8.63-.22-12.51.54-17.54,3.47-41.8,11.38-53.83,17.94-3.15,1.72-5.74,4.36-8.16,5.98-13.53-2.6-19.77-12.49-27.19-21.2C28.36,96.32,42.38,39.11,76.12,1.63Z"/>
  </g>
</svg>