<?xml version="1.0" encoding="UTF-8"?>
<svg id="Layer_2" data-name="Layer 2" xmlns="http://www.w3.org/2000/svg" viewBox="0 0 475.73 422.8">
  <defs>
    <style>
      .cls-1 {
        fill: #fff;
      }

      .cls-1, .cls-2, .cls-3 {
        fill-rule: evenodd;
        stroke-width: 0px;
      }

      .cls-2 {
        fill: #ec1c24;
      }
    </style>
  </defs>
  <g id="katman_1" data-name="katman 1">
    <g>
      <path class="cls-3" d="m0,422.63v-64.49c12.33-5.98,32.02-5.34,45.99-9.51,26.89-8.03,45.65-25.21,74.53-31.72,3.41-5.34,3.74-16.19,2.64-24.31-19.84-4.49-22.26-28.31-30.13-45.46-2.57-5.61-5.44-10.64-6.87-16.39-8.61-34.66-1.65-80.2,3.7-114.18,5.69-36.14,11.99-70.09,35.94-88.27,7.72-5.86,18.01-10.96,27.49-15.86,10.16-5.25,21.39-9.44,32.24-11.1,27.38-4.18,51.01,1.84,71.36,11.63,17.63,8.48,35.8,23.92,45.99,40.7,10.23,16.86,15.4,46.42,8.98,72.95-3.29,13.6-9.46,26.17-15.33,37.53-5.74,11.11-13.94,20.88-17.44,34.89-.16.67-.51,1.05-.53,1.58-.66,26.07-6.7,60.61,0,88.8.19-17.18-1.52-36.44,5.28-47.05,3.02-4.71,9.85-6.86,14.27-11.63,3.72-4.02,3.01-9.2,8.46-10.57-.22-2.42-.8-4.48-.53-7.4,4.26-6.57,9.74-10.58,16.92-15.86,5.74-4.22,11.9-12.11,20.61-12.16,5.55-.03,13.6,3.86,16.92,7.4,5.89,6.29,6.89,17.03,12.69,23.26,6.7-7.96-.92-18.87,2.11-28.54-3.92-6.09-9.01-13.21-10.04-23.26-1.25-12.11,1.54-26.05,11.1-26.43,10.67-.42,8.86,9.68,12.16,18.5,1.83,4.9,8.11,8.89,10.04,14.8,6.97,21.29-3.8,44.7.53,67.13,3.25-2.34,5.63-7.64,7.93-12.68,2.28-4.99,4.86-10.81,4.23-17.44-.76-8.09-6.28-16.57-4.76-27.49.33-2.35,2.02-4.61,3.17-7.4,2.71-6.54,5.26-16.61,14.27-14.8,8.68,1.74,4.54,11.56,5.81,20.61,1.12,7.92,5.14,14.27,6.34,20.62,4.6,24.25-9.03,43.3-10.04,61.32,5.43,2.02,6.49-2.84,9.51-5.28,2.86-2.31,6.69-2.46,8.99-5.29,8.44-10.41,4.92-38.8,24.84-32.77,12.25,3.71,1.15,17.52-.53,26.43-.73,3.88.07,9.27-.53,12.16-1.27,6.14-6.12,11.19-10.04,15.33-3.46,3.65-10.92,7.21-13.21,11.63-1.56,3-1.24,6.71-2.64,9.52-3.98,7.96-8.51,13.25-11.1,20.09-4.07,10.77-3.61,24.84-10.57,33.3-1.66,5.32-10.63,7.49-11.63,12.69-.5,2.59,1.64,4.81,1.58,8.46,21.4,8.89,38.53,21.27,53.39,37.53,4.51,4.94,11.26,10.53,11.63,18.5-158.57,0-317.16,0-475.73,0ZM98.85,138.78c3.54,5.82,12.94,11.97,18.5,11.63,9.27-.57,10.7-12.49,6.34-19.03-3.06-4.6-9.11-4.43-14.27-6.87-7.5-3.55-8.96-10.66-13.21-14.27-2.53,9.87-2.09,20.76,2.64,28.54Zm109.95-.53c-15.84-1.06-28.4,2.33-35.42,12.16,7.58,4.9,14.6,11.89,25.9,10.57,15.25-1.77,29.66-11.34,33.3-24.32.56-.03.42-.68-.53-.53-5.92,4.72-14.8,2.68-23.26,2.11Zm108.36,87.75c.95,11.55-1.41,17.17-4.23,24.84-1.77,4.82-5.15,10.17-5.29,13.74-.23,5.93,6.75,15.5,12.16,14.8,3.12-.41,7.79-8.25,9.51-11.63,7.84-15.4,11.35-31.39,13.21-50.74-10.28,1.17-12.17,10.74-25.37,8.99Z"/>
      <path class="cls-1" d="m96.2,110.76c4.8,4.8,6.32,10.54,12.69,13.74,5.09,2.57,11.82,2.47,14.8,7.4,4,7.28,2.26,17.47-6.34,17.97-4.63.27-12.42-4.14-15.86-7.93-7.17-7.91-7.48-21.73-5.29-31.19Zm104.66,27.49c-12.27.32-20.87,4.22-26.96,12.16,6.53,4.35,13.05,10.52,22.2,10.57,15.11.09,33.05-11.58,35.94-23.79.56-.03.42-.68-.53-.53-8.11,5.62-20.16,1.31-30.66,1.59Z"/>
      <path class="cls-2" d="m132.68,44.16c.95-8.39,2.37-16.31,6.87-21.14,7.81-4.83,28.04-14.25,37.53-16.91,10.71-1.63,20.86-3.81,33.83-3.17-21.32,14.44-36.89,34.65-63.96,43.34-5.72.26-10.97.04-14.27-2.12Zm55.5-15.86c-.24,4.45,6.08,10.31,8.99,12.69,2.21,1.81,28.37,15.69,31.72,16.92,2.15.78,4.98.35,6.87,1.06,10.33,3.85,12.72-1.07,24.84-4.23,11.04-2.87,23.26-5.06,35.42-5.29-6.14-9.9-39.37-42.07-79.82-45.46-6.77,4.55-14.13,9.5-19.56,14.8-2.31,2.26-8.29,6.27-8.46,9.51Zm-73.47,35.94c13.25-5.14,13.48-20.84,17.44-34.89-.06-.64-.16-1.25-1.06-1.06-12.14,9.36-21.77,21.22-27.49,37,4.84.79,6.7.59,11.1-1.06Zm69.24-32.77c-10.98,17.74-20.79,36.65-26.96,59.2,6.29,5.87,13.73,10.58,24.84,11.63,15.62-15.74,34.92-27.81,54.97-39.12-22.51-5.69-40.75-15.63-52.86-31.72Zm-51.8,16.92c-1.21,15.63-1.94,34.35,1.06,49.69,7.98,2.38,13.99-4.09,19.56-7.4,5.94-21.02,14.84-39.08,24.84-56.03-12.35,6.74-26.57,20.3-45.46,13.74Zm138.49,59.2c15.96-.03,28.05,7.23,39.12,13.74,3.17-26.27-.19-53.69-11.63-68.72-19.43,1.01-35.02,5.86-50.75,10.57-4.48,22.88,11.96,33.79,23.26,44.4Zm-148,6.34c11.19-6.43,5.48-18.39,4.76-34.36-.36-7.89.91-17.86-.53-20.61-4.86,6.94-12.77,10.84-24.84,10.57-.92,6.65-4.42,15.09-1.59,21.14,4.36,9.29,14.59,18.82,22.2,23.26Zm116.82-47.57c-15.53,8.96-31.82,17.16-43.87,29.6-4.69,2.18-7.98,5.77-11.1,9.51,2,5.4,4.91,9.9,7.4,14.8,28.07.75,53.6-1.02,63.96-17.97h2.11c-7.45-9.64-16.16-18.02-15.33-35.94-1.06,0-2.11,0-3.17,0Zm-84.05,70.83c5.78-12.2,13.59-22.35,22.2-31.72-9.45-1.48-15.91-5.94-22.2-10.57-1.54,12.01-10.97,34.06,0,42.29Zm-21.14-34.89c1.3,12.45,2.56,24.93,7.4,33.83,1.19-.89,3.92-3.12,4.23-4.23,2.55-9.15,1.24-26.36,5.29-34.89-5.35,2.05-8.44,6.36-16.91,5.29Zm131.62,6.34c-.72-1.92-3.31-1.98-3.7-4.23h-2.64v5.29c3.27.81,3.44-1.49,6.34-1.06Zm-86.16,0c-4.79,7.37-13.82,13.32-15.33,22.2,5.21-5.36,14.2-6.94,22.2-9.52-2.53-3.98-3.41-9.63-6.87-12.69Zm-53.92,8.46c3.36.87,3.93,4.53,7.4,5.29-.27-3.78-1.71-6.39-1.59-10.57-3.3.4-4.01,3.39-5.81,5.29Zm121.58,34.36c5.09,2.83,10.4,5.46,14.8,8.99-2.81-18.94.74-36.63,7.93-48.63-3.91.32-6.91,1.55-10.57,2.11-1.15,15.41-5.77,27.36-12.16,37.53Zm17.97-13.74c-.58,7.7-1.21,18.19,1.06,24.84,2.24,6.58,10.27,9.6,12.68,15.33,1.4,1.42.88,4.75,3.7,4.76,9.96-18.23,20.14-35.31,25.37-57.09-9.33-6.35-18.66-12.7-33.3-13.74-3.75,6.69-8.72,15.37-9.52,25.9Zm-122.1,16.39c1.9-1.93,5.76-.84,7.93,0-.66-5.94,1.39-9.18,2.11-13.74-2.3-.87-3.26-3.09-5.29-4.23-2.57.95-3.11,3.94-6.34,4.23-.67,5.16-2.97,11.68,1.59,13.74Zm241.04-1.06c1.64-4.71-2.58-7.46-3.17-11.63-7.82-3.88-13.11,4.05-11.1,11.63,3.4,1.77,10.79,1.35,14.27,0Zm-288.61,8.46c-3.2-1.73-3.6-6.27-7.4-7.4-.76,5.59-1.83,13.67-1.06,19.03,2.01-4.69,6.4-6.99,8.46-11.63Zm34.36,19.03c2.81-8.64,6.56-16.35,9.51-24.84-.52-.54-1.04-1.07-1.59-1.59-3.97,6.95-11.66,10.18-21.14,11.63,5.41,3.93,9.17,9.51,13.22,14.8Zm131.09-14.8c-3.21-5.6-9.89-7.73-15.86-10.57-10.66,14.36-28.88,21.16-53.92,21.14,12.89,12.49,24.63,26.11,35.94,40.17,3.23-24.96,16.61-39.77,33.83-50.74Zm130.03-1.06c-2.48-2.45-3.82-6.04-6.34-8.46-3.28,3.53-11.45,1.86-16.39,1.06-3.08,16.97,15.29,10.75,22.73,7.4Zm-235.75,25.37c-1.67-11.2-2.87-22.85-5.81-32.77-3.04-.4-4.97.31-6.87,1.06-3.57,9.47-8.02,18.06-10.57,28.54,9.41-.6,16.39,1.23,23.26,3.17Zm32.77-10.57c-.02-1.74-2.61-.91-2.11-3.17-14.69-1.52-21.57-10.85-30.66-17.97h-1.06c2.02,10.49,2.61,22.41,5.81,31.72,6.93-5.93,14.88-10.84,28.02-10.57Zm238.39-16.91c-6.35-5.32-12.78,2.91-13.21,10.04,5.26,8.16,16.89,1.75,13.21-10.04ZM111,245.03c5.88-20.66,9.98-40.09,16.91-59.2-3.71-8.1-9.57-14.04-16.39-19.03-5.8.69-9.08-1.14-13.21-2.11-6.36,9.21-15.33,13.93-12.69,31.19,11.37,13.47,18.51,31.18,25.37,49.16Zm164.92-44.4c1.43-2.98,4.22-10.68,4.23-12.16.03-5.87-10-15.01-12.69-17.97-1.14-1.26-1.32-3.23-3.17-2.64-2.72,2.5-5.32,3.91-8.99,6.87-2.98,2.41-6.07,5.41-7.93,7.4-5.47,5.85-11.25,14.43-14.27,23.79-5.16,15.99,3.07,29.23,10.04,41.23,2.43-2.85,12.7-15.95,15.33-20.09.79-1.24,3.36-4.76,3.7-5.29,1.42-2.16,11.66-16.8,13.74-21.14Zm95.15-28.54c2.27,4.42,2.59,10.85,7.93,11.63,2.97.43,9.59-3.88,12.16-5.29,1.16-.63,2.8-.57,3.7-1.06,2.65-1.42,1.14-7.72-1.58-9.52-7.22,1.48-13.88,7.12-22.2,4.23Zm58.14,16.92c-.97-3.25-2.4-6.06-2.11-10.57-4.98,3.13-12.92,2.37-15.86-2.11-2.44,3.16-1.99,7.09-1.06,11.63,5.94,2.92,13.22,6.13,19.03,1.06Zm-49.69-2.11c-2.68,3.67-2.26,9.46-.53,13.74,6.32,3.47,12.65,3.09,17.97-1.06,1.15-5.37.24-12.8.53-19.03-6.95,1.16-9.67,6.54-17.97,6.34Zm-176.55,53.91c7.74-5.52,16.25-9.86,24.84-14.8-9.06-17.19-23.3-29.21-35.42-43.34-14.57-.12-24.17,4.73-31.72,11.63,4.04,24.85,10.74,47.06,17.97,68.72,8.12-7.25,15.25-15.73,24.32-22.2Zm141.13-26.43c10-1.45,14.51-8.4,13.21-21.14-4.47-1.87-7.08-5.61-13.74-5.28,5.01,6.93,4.83,18.67.53,26.43Zm-170.73,47.57c-5.1-22.56-12.97-42.35-16.39-66.6-7.28-3.29-15.96-5.19-26.43-5.29-6.4,18.97-12.03,38.71-15.86,60.26,24.9-1.46,42.51,4.35,58.67,11.63Zm162.8-47.57c9.48-.97,9.04-19.08,3.7-24.32-6.71.52-9.7,4.75-13.22,8.46,5.83,2.63,9.51,7.4,9.52,15.86Zm74-22.2c-1.36,13.44,15.43,17.3,23.26,9.51.21-3.74-2.54-4.51-2.11-8.46-6.29,2.88-16.03,2.74-21.14-1.06Zm-85.1,20.61c1.74,2.52.95,6.7,4.23,7.93.27-.75,2.02-2.33,3.7-3.17.07-9.41-3.86-14.82-11.1-16.92-1.34,2.36-4.93,2.47-5.29,5.81,1.34.42,2.01,1.52,3.7,1.59,1,2.35,3.32,2.68,4.76,4.76Zm21.67,6.87c7.83,3.35,17.97,2.1,21.67-4.23-1.81-5.42-4.12-10.33-6.87-14.8-.67,10.6-8.7,13.86-14.8,19.03Zm-236.28,33.3c-.38-3.52-3.54-8.33-5.29-12.69-4.8-11.94-12.19-29.46-19.03-36.47,1.61,11.08.88,21.81,4.23,30.66,2.6,6.89,6.96,12.44,8.99,19.03,2.12,6.9,2.83,14.2,7.93,20.09-.57-7.37,3.89-14,3.17-20.62Zm284.38-34.36c.71-4.4,1.48-8.74,1.59-13.74-4.12,2.46-12.97,3.2-16.91,0-4.2,10.09,4.95,18.42,15.33,13.74Zm19.56-10.57c.49,4.54-1.14,6.97-1.59,10.57,6.43,9.79,24.87,4.57,20.61-11.63-5.29,2.45-13.04,3.22-19.03,1.06Zm-92.5,14.8c-.07-.95.52-1.24,1.59-1.06.07-8-5.53-10.32-11.1-12.69-6.34,6.56-1.51,15.69,9.51,13.74Zm54.44-5.28h-1.06c-2.63,10.57,8.2,20.8,20.09,16.92-.69-3.37-.55-7.56-.53-11.63-8.18,2.67-15.16-.16-18.5-5.28Zm95.67,7.4c.84-7.18-11.99-6.62-13.21-1.59,2.29,2.99,9.17,3.4,13.21,1.59Zm-104.13-3.17c-3.98,4.21-16.93,4.31-22.2,1.06-1.18,2.52-.85,6.55-1.59,9.52,8.19,7.99,24.43,2.47,23.79-10.57Zm-65.54,8.46c3.04,2.6,5.99,5.28,11.63,5.29v-9.52c-2.1-1.42-5.03-2.02-7.4-3.17-1.48,2.4-2.76,5-4.23,7.4Zm128.98-5.28c-6.37,4.13-15.92,3.6-20.09-2.12-1.5,3.79-3.72,6.85-4.76,11.1,6.06,12.66,26.37,7.43,24.84-8.99Zm-34.89,13.74c-15,2.32-20.53-4.85-25.37-12.69-5.94,16.02,11.2,26.59,25.9,20.09-.12-2.23.82-3.42,1.06-5.29-1.4.16-1.36-1.11-1.59-2.11Zm74.53-9.52c-5.21,2.68-11.91-.23-14.8-3.17-2.09,4.21,0,9.16,2.64,11.63,6.95.08,10.83-2.91,12.16-8.46Zm-209.85-1.06c-.28,2.89-2.61,3.74-3.17,6.34h4.23c-.55-1.91,1.2-6.13-1.06-6.34Zm-31.72,2.11c-20.19,8.53-35,22.45-49.16,37,1.29,8.75,4.46,15.63,8.99,21.14,18.89-10.19,35.42-22.72,50.22-37-2.61-7.78-5.46-15.33-10.04-21.14Zm43.34,29.6c-.94-9.77.92-21.1-.53-28.54-10.02,2.84-6.14,19.59-6.87,31.71,2.63-.89,4.17-2.88,7.4-3.17Zm38.59-12.69c.24-2.75,1.97-4.02,1.59-7.4-5.62-.9-9.67-3.37-13.22-6.34-2.85,1.91-5.14,4.37-7.93,6.34,1.51,7.2,10.77,10.84,19.56,7.4Zm56.03-5.28c-.7-1.59-.54-4.05-.53-6.34-4.97,2.61-9.77,5.39-18.5,4.23-1.02-1.45-2.94-1.99-5.29-2.12,2.82,7.83,17.36,9.46,24.31,4.23Zm84.05,0c2.67,3.85,5.57,7.46,13.21,6.34.62-2.2.66-4.98,1.06-7.4h-9.51c-1.01-1.63-1.7-3.59-3.7-4.23.32,2.44-1.19,3.04-1.06,5.29Zm-29.07,13.74c1.76-4.06,3.44-8.19,4.76-12.68-6.08,3.41-14.31,2.41-17.97-.53-1.95-1.57-3.2-4.02-4.76-4.76h-1.06c-7.93,12.08,5.08,23.27,19.03,17.97Zm-160.16,13.74c-.52-10.05-.15-21-1.06-30.66-11.66-.39-11.82,10.74-19.03,14.8-.52,6.31.3,14.42,0,23.26,6.12-3.05,10.61-7.71,20.09-7.4Zm24.32-26.43c-7.1,10.94,4.82,23.02,18.5,17.97,1.67-2.91,3.58-5.58,4.23-9.52-9.07,3.59-17.85-1.27-19.56-8.46h-3.17Zm38.06,38.06c5.18,1.52,7.44,5.95,12.69,7.4,5.08-12.71,9.56-26.03,12.16-41.23-3.59-.46-5.23-2.87-7.93-4.23-4.33,14-8.93,27.72-16.91,38.06Zm41.23-33.83c-3.73,1.21-7.21,2.66-12.69,2.11-1.88,10.46-5.65,22.62-8.99,31.72-2.87,7.83-4.32,9.69-1.06,15.33,1.73,2.99,2.62,7.43,5.29,10.04,7.02-18.53,12.87-38.23,17.44-59.2Zm97.79,11.63c1.14-2.04,1.94-4.4,2.11-7.4-7.65,1.48-11.94-1.22-16.39-4.23-4.27,9.37,5.03,13.68,14.27,11.63Zm-94.62-10.57c-2.39,16.38-8.71,35.47-13.74,49.69-1.9,5.36-4.6,11.16-5.29,15.86-.95,6.53.45,12.07,0,16.91-.63,6.72-3.72,13.57-6.87,16.92-3.41,3.62-6.72,7.1-12.69,7.4.49,1.98,2.5,2.44,4.23,3.17,8.31-2.4,21.66-.94,29.07,1.06-3.21-7.15-12-15.11-11.63-25.37.2-5.55,3.11-10.65,6.34-14.8,5.1-22.91,12.84-43.19,20.61-63.43-5.61-.2-5.38-6.25-10.04-7.4Zm7.4,1.06c3.7,5.53,14.31,4.86,18.5,2.11-6.9.03-14.34.6-18.5-2.11Zm-256.89,39.12c6.66,1.83,17.53,3.64,23.79,5.29,13.4,3.54,31.21,3.13,41.76-3.17-3.88-7.57-7.3-15.61-10.04-24.32-17.49-6.22-36.9-15.23-60.79-11.63-1.74,8.12-2.62,17.11-4.23,25.37,2.24,2.49,6.13,7.53,9.51,8.46Zm304.47-25.37c.09-1.5-1.79-1.03-1.06-3.17-2.32-.85-4.06.87-5.81,1.06-8.86.96-13.51-3.51-18.5-7.4-.99,14.57,16.48,16.11,25.37,9.51Zm28.02,9.52c2.98-2.84,6.95-4.68,7.93-9.52-9.3,1.19-12.48-3.73-15.86-8.46-1.9,1.1-4.53,1.46-5.81,3.17,2.13,7.38,6.43,12.6,13.74,14.8Zm-69.24-14.8c-5.91,15.76-14.05,32.11-16.39,49.69,2.36-4.16,5.82-7.22,10.04-9.52,5.48-12.84,13.46-23.19,21.14-33.83-.7-2.64-2.33-4.37-2.64-7.4-5.1-.7-7.05,1.76-12.16,1.06Zm-74,17.97c-2.03-2.9-3.48-6.38-4.23-10.57-11.05,1.19-18.59-1.14-22.2-7.4.51,7.91-.99,13.81-1.06,21.14,8.64,3.98,21.45,1.56,27.49-3.17Zm-72.42-16.92c-6.46,7.99-26.73,21.2-26.96,23.26,7.87-4.26,19.07-4.68,29.07-2.11,1.32-6.55-1.32-13.39-.53-21.14-.53,0-1.06,0-1.59,0Zm195.05,4.23c-1.51,11.38,3.48,16.25,13.74,15.86-.29-2.41,2.49-1.74,2.64-3.7-6.51-2.3-8.98-8.63-13.21-13.21-1.5-.09-1.03,1.79-3.17,1.06Zm-155.41,35.94c-2.07-10.96-1.86-24.21-4.23-34.89-10.73,6.18-1.81,26.13-1.06,37,2.07-.4,2.26-2.68,5.29-2.12Zm128.45-28.54c-1.77-.88-2.37-2.91-4.76-3.17-4.73,7.95-11.1,14.27-14.8,23.26,6.25-6.97,18.48-7.95,19.56-20.09Zm22.73-2.64c-.12-.41-.44-.61-1.06-.53-5.22,11.16,4.23,21.62,14.8,16.91-5.92-4.12-14.05-6.04-13.74-16.39Zm-8.99,1.59c-.73,11.85,5.41,22.42,16.39,19.03-11.02.52-14.58-8.3-12.69-19.03h-3.7Zm15.33,30.66c1.31-2.22,3.18-3.87,4.23-6.34-16.24.73-23.52-7.49-23.26-23.26h-6.34c-3.78,18.53,6.79,30.1,25.37,29.6Zm-167.03,4.23c-.1-9.3-3-20.22-3.7-30.66-9.81-.47-14.88,3.8-19.56,8.46-.05,8.98,1.85,23,4.23,29.6,5.26-3.55,10.04-7.58,19.03-7.4Zm15.33-21.14c-.36,5.25.95,13.05,1.59,19.03,17.19-.78,27.33-8.61,33.83-20.09-10.53-5.87-22.77,8.75-35.42,1.06Zm-72.95,40.17c4.39-2.32,10.02-7.42,16.91-8.46,5.64-.85,13.69.76,17.44,0-1.29-8.58-2.29-22.02-4.76-31.19-9.94-2.98-22.18-1.33-29.6,2.64.11,8.6-2.24,26.6,0,37Zm222.54-19.03c-15.19-1.38-25.26-7.86-27.49-22.2-4.48,1.86-7.29,5.39-11.63,7.4,1.7,17.86,16.06,23.06,35.42,23.26.81-3.24,2.89-5.22,3.7-8.46Zm-227.82-20.09c-10.52,6.04-19.32,13.8-34.89,14.8-2.91,7.13-.94,19.14-3.7,26.43,6.39-1.21,12.87-4.07,20.09-3.17,7.09.88,13.76,4.25,19.03,6.34-.13-15.03.77-31.51,1.06-44.4-.53,0-1.06,0-1.59,0Zm116.82,0c-6.34,12.34-18.03,19.33-33.83,22.2.95,4.86,5.01,6.62,5.81,11.63,21.45-.58,28.29-15.76,33.3-32.77-2.48.36-2.37-1.86-5.28-1.06Zm8.46,4.23c-5.84,16.72-12.42,32.69-34.89,32.77.92,7.54,5.17,11.74,7.4,17.97,3.95.6,5.97-.73,8.99-1.06,7.4-8.37,19-20.35,20.62-34.89.42-3.8.94-11.95-2.11-14.8Zm-17.44,57.09c6.24,4.12,10.99,9.25,19.56,6.34,21.49-7.3,18.32-48.81,3.17-59.2,3.5,15.9-6.09,27.21-11.1,38.06-5.6,3.56-7.12,11.2-15.86,11.63-.1,2.96,2.49,2.03,4.23,3.17Zm114.7-29.07c-20.87.25-33.45-7.77-38.06-23.79-1.99,2.6-5.02,4.14-7.4,6.34,3.49,22.06,17.33,33.77,42.82,33.83,1.55-4.49,2.68-12.06,2.64-16.39Zm-300.77-.53c7.19-2.15,6.6-12.08,7.93-20.09-1.47-1.35-4.58-1.06-6.34-2.11-.16,6.44-.49,15.18-1.59,22.2Zm35.41,11.63c1.89-8.33,3.05-17.39,3.17-27.49-7.86-2.01-19.54-.2-26.43-3.17-1.79,6.14-2.25,13.61-4.76,19.03,14.34-1.12,19.92,6.51,28.02,11.63Zm130.03-1.06c-1.45-10.54-8.01-15.95-11.63-24.32-3.96-.44-4.98,2.07-7.4,3.17,2.27,10.77,4.71,21.37,10.57,28.54,1.95-3.34,4.4-6.18,8.46-7.4Zm130.56,10.57c-24.53-1.72-39.91-12.59-43.87-34.89h-1.59c-1,2.88-4.01,3.74-5.81,5.81-3.86,19.04,12,22.39,17.97,33.3,8.11,2.58,18.62,6.2,29.07,3.17,1.18-2.69,3.66-4.1,4.23-7.4Zm-141.66,1.06c-6.04-8.41-8.04-20.85-12.69-30.66-8.21,1.66-15.36,4.37-19.03,10.57,1.01,12.91,2.85,24.98,6.87,34.89,5.57-7.64,10.85-15.58,24.84-14.8Zm-28.54,17.97c-3-11.62-5.82-23.43-6.87-37-15.55-2.89-27.41,1.94-35.42,9.51-2.4,9.57.33,24.11-.53,37,9.62-8.41,25.86-14.47,42.82-9.52Zm-123.69-37h-2.64c-2.18,6.04-.82,22.12-8.99,20.61.15-5.36,5.61-9.87,4.23-18.5h-3.17c-5.15,11.41-13.03,20.1-21.14,28.54,8.18.98,13.55,4.77,19.03,8.46,6.1-11.17,10.39-24.14,12.69-39.11Zm26.43,49.69c2.79-11.14,6.02-24.62,5.29-37.53-7.45-4.81-15.56-14.25-27.49-11.1-3.42,14.37-7.53,28.06-13.22,40.17,16.42-1.8,25.73,3.52,35.42,8.46Zm-62.9-21.14c8.76-6.05,15.28-14.32,20.09-24.32-4.53-.65-29.86,12.43-30.13,14.8,5.5,1.02,7.73,5.31,10.04,9.51Zm114.18,19.03c-.74-9.01-.72-22.72-1.06-33.83-9.52-6.01-29.41-9.28-40.17-2.11-1.16,12.96-3.9,27.07-5.29,38.06,12.64-6.44,31.35-5.65,46.52-2.12Zm109.95-12.69c-.27-2.37-2.48-2.81-4.76-3.17-7.19-5.67-15.21-10.51-17.44-21.14-4.38,1.43-7.02,4.61-7.93,9.51,6.75,9.81,13.02,20.11,21.14,28.54.28-5.4,3.37-11.98,8.99-13.74Zm-249.49,22.2c8.16-8.23,17.1-15.67,22.2-26.96-2.99-4.74-8.85-10.96-13.74-7.93-6.48,4.01-20.04,5.76-21.67,12.69,7.8,4,12.85,10.76,13.22,22.2Zm202.98,21.14c5.25-14.66,16.26-23.56,36.47-23.26-7.27-10.7-15.71-20.23-22.2-31.72-6.89-.27-13.18-.06-17.44,3.17-.28.21-.77,2.55-1.59,3.17-4.97,3.77-8.58,8.68-6.87,15.86,2.47,10.42,7.64,25.3,11.63,32.77Zm-177.08-44.4c-7.24,10.38-16.55,18.69-24.32,28.54h5.29c8,2.57,14.02,7.12,18.5,13.22,2.38,3.09,3.06,7.86,6.34,10.04,6.17-13.21,12.18-26.59,16.39-41.76-2.68-3.49-7.42-4.91-10.57-7.93-4.9.32-7.07-2.09-11.63-2.12Zm-31.19,28.54c4.54-13.76-4.6-21.4-12.16-26.43-11.3,9.84-26.84,15.45-41.23,22.2,13.22,7.39,16.02,25.21,16.39,45.46,3.6-.69,2.9-4.01,4.23-6.34,8.04-14.11,19.99-25.38,32.77-34.89Zm276.45,3.17c-1.46-7.71-3.42-14.91-4.23-23.26-4.8-1.02-7.2-4.43-12.16-5.29,1.86,10.48,4.64,20.03,6.34,30.66,1.73-2.32,5.74-2.37,10.04-2.12Zm-14.27,1.06c-1.81-9.82-3.45-19.81-6.34-28.54-12.46,7.39-1.86,24,6.34,28.54Zm-58.15,15.86c-3.68-14.12-8.75-26.84-12.16-41.23-16.82-5.8-34.24,1.11-43.34,9.52-.74,16.89-.23,35.36,2.11,50.74,10.44-13.7,29.04-19.24,53.39-19.03Zm145.89-25.37c-1.73-5.14-3.04-10.7-3.7-16.91-6.37-.02-7.31,5.37-13.74,5.28-.21,6.9,2,11.39,4.23,15.86,2.92-2.9,6.88-4.75,13.22-4.23Zm-44.4,6.34c-1.86-5.9-2.36-13.15-3.17-20.09-8.69-.12-18.33-3.74-26.43-1.06,1.59,8.45,2.1,17.99,5.81,24.31,4.09-6.82,16.5-7.84,23.79-3.17Zm-248.44-17.97c-4.55,15.53-11.04,29.13-16.91,43.34,4.01.32,7.55-.44,10.57,0,1.13.17,8.18,1.62,9.51,2.11.65.24.87,1.7,1.59,2.11,1.24.73,3.55.42,4.76,1.06,5.26,2.79,9.49,9.5,16.39,9.51,4.1-15.29,7.6-31.16,9.51-48.63-7.9-7.09-21.01-12.16-35.42-9.52Zm249.49-1.06c-.22,7.8,1.61,13.55,2.64,20.09,6.17-3.35,13.5-6.9,22.73-4.23-1.43-4.03-2.71-8.21-3.7-12.69h-15.86c-1.54-1.46-3.12-2.87-5.82-3.17Zm-209.85,9.52c-3.08,16.83-5.18,34.64-10.04,49.69h7.4c14.23-7.28,38.63-3.55,52.33,0-1.63-16.16-1.27-34.32-2.11-51.27-13.63-5.92-35.21-3.92-47.57,1.59Zm255.84-1.06c1.73,6.2,3.64,12.22,5.81,17.97h5.28c5.22,2.71,12.33,3.52,14.27,9.52,13.34,5.15,24.44,12.56,32.24,23.26h3.7c-14.51-22.85-34.21-40.5-61.32-50.75Zm-103.6,5.29c-15.27.34-26.45,3.56-33.3,12.69-2.44,3.26-5.76,10-5.81,13.21-.12,7.58,7.07,11.68,7.93,19.56h42.82c2.01-2.39,5.4-3.41,10.04-3.17-1.75-9.71-4.66-18.25-6.87-27.49-5.81-4.06-10.69-9.05-14.8-14.8ZM0,380.35v42.29h20.09c-2.4-18.39-1.38-40.2-20.09-42.29Zm397.5,3.17c3.48,10.27,7.82,19.67,11.63,29.6,4.12-2.4,6.37-6.67,14.27-5.29-4.17-8.51-8.79-16.58-11.63-26.43-5.4-2.85-10.16.55-14.27,2.11Zm6.34,29.6c-1.17-9.63-7.07-18.98-10.04-28.54-6.83-3.93-18.28-1.91-22.2,3.17.05,9.64,4.99,18.97,6.87,28.54,5.48-3.48,16.89-6.16,25.37-3.17Zm-29.6,2.11c-5.13-10.95-2.58-28.52-16.39-31.72-8.52-.51-14.79,3.24-15.33,8.46-.29,2.78,2.23,6.73,3.17,10.04,1.8,6.35,3.43,12.5,4.23,17.44,5.26-5.07,15.44-8.71,24.32-4.23Zm-286.5-19.03c-5.49-8-15.33-11.91-25.37-11.63-13.8,9.99-25.58,21.99-33.3,38.06h59.2c.52-4.83,5.67-7.35,5.81-12.16.09-3.09-3.89-10.69-6.34-14.27Zm241.04-6.34c-.04,10.31,4.81,20.17,6.34,30.66,2.1-1.72,7.69-3.39,10.57-1.06-1.2-9.06-5.33-19.66-7.4-29.6-2.78-.04-9.1-1.34-9.52,0Zm98.32,14.8c2.01-1.87,4.15-3.6,7.4-4.23-2.78-3.74-7.17-5.87-13.22-6.34,1.56,3.9,2.91,8.01,5.81,10.57Zm33.3,13.74c-4.19-7.61-13.52-10.09-20.62-14.8-5.14-.38-7.46,2.05-10.04,4.23.4,7.01,5.44,9.36,7.4,14.8h28.02c-.7-2.3-2.16-3.83-4.76-4.23Zm-246.32,4.23h59.73c-1.8-6.65-5.36-11.56-7.4-17.97-22.31,1.12-42.61,4.26-52.33,17.97Zm197.69-6.34c-.01,3.18,3.09,3.26,3.17,6.34h17.44c-1.2-4.27-4.77-6.15-5.81-10.57-6.05-3.18-11.58,1.28-14.8,4.23Zm-313.98-4.23c-1.52,3.59-3.65,6.57-4.76,10.57h39.64c-8.01-7.15-18.36-11.94-34.89-10.57Zm298.65,3.17c-6.38-.22-15.44,2.15-16.39,7.4h30.66c-1.26-4.65-8.33-7.19-14.27-7.4Zm-42.82,7.4c7.24-.69,17.24,1.39,22.73-1.06-4.06-5.86-20.01-5.86-22.73,1.06ZM2.11,374h3.17c13.7-7.26,29.68-12.25,40.7-22.2-5.95,1.8-12.08,3.43-20.09,3.17-9.51,1.24-17.79,3.71-25.9,6.34v6.34c2.29.53,2.16,3.48,2.11,6.34Zm264.82-143.78c1.17-2.17,3.01-3.69,6.87-3.17.6-4.91,1.47-15.03,1.06-17.44-4.01,4.9-11.17,11.95-7.93,20.61Zm146.42,118.4c-.41.12-1.04.01-1.06.53-14.52,1.65-26.52-3.79-33.3-11.63-4.18-7.8-13.75-10.21-13.21-22.73-2.96,1.44-3.23,5.58-5.81,7.4-4.32,12.65,2.85,18.39,9.52,23.26,7.35,5.36,15.9,10.77,30.66,8.46,2.97-1.44,6.85-1.96,11.1-2.12-.06-1.82,2.17-1.35,2.11-3.17Zm-32.24,8.46c-9-2.34-17.83-11.78-23.79-16.91,2.84,8.79,8.89,14.37,13.74,21.14,9.11,2.25,21.79,1.26,27.49-3.17-4.15-.17-12.68.18-17.44-1.06Z"/>
    </g>
  </g>
</svg>